<svg viewBox="0 0 200 200"
  xmlns="http://www.w3.org/2000/svg">
  <!-- Gradient definitions -->
  <defs>
    <linearGradient id="pivotGradient" x1="0%" y1="0%" x2="100%" y2="100%">
      <stop offset="0%" stop-color="#06b6d4" />
      <stop offset="50%" stop-color="#8b5cf6" />
      <stop offset="100%" stop-color="#ec4899" />
    </linearGradient>
    <radialGradient id="glowGradient" cx="50%" cy="50%" r="50%">
      <stop offset="0%" stop-color="rgba(139, 92, 246, 0.8)" />
      <stop offset="100%" stop-color="rgba(139, 92, 246, 0)" />
    </radialGradient>
  </defs>

  <!-- Background circle with glow -->
  <circle cx="100" cy="100" r="90" fill="url(#glowGradient)" opacity="0.3"/>

  <!-- Outer ring representing blockchain network -->
  <circle cx="100" cy="100" r="85" fill="none" stroke="url(#pivotGradient)" stroke-width="2" opacity="0.6"/>

  <!-- Middle ring representing data flow -->
  <circle cx="100" cy="100" r="65" fill="none" stroke="#8b5cf6" stroke-width="1" opacity="0.5"/>

  <!-- Main pivot shape - representing flow and movement -->
  <path d="M100 30 
       L160 60 
       L140 100 
       L180 140 
       L140 180 
       L100 160 
       L60 180 
       L20 140 
       L60 100 
       L40 60 
       Z" fill="url(#pivotGradient)" opacity="0.9" />

  <!-- Inner flow lines -->
  <g stroke="rgba(255,255,255,0.8)" stroke-width="3" stroke-linecap="round">
    <line x1="70" y1="70" x2="130" y2="70" />
    <line x1="70" y1="100" x2="130" y2="100" />
    <line x1="70" y1="130" x2="130" y2="130" />
  </g>

  <!-- Central pivot dot -->
  <circle cx="100" cy="100" r="8" fill="white" />

  <!-- Floating particles -->
  <circle cx="160" cy="40" r="3" fill="#06b6d4" opacity="0.7"/>
  <circle cx="40" cy="160" r="3" fill="#8b5cf6" opacity="0.7"/>
  <circle cx="180" cy="140" r="3" fill="#ec4899" opacity="0.7"/>
  <circle cx="20" cy="60" r="3" fill="#06b6d4" opacity="0.7"/>
</svg>
